# xmcd
#
# Track frame offsets:
#	150
#	19380
#	34580
#	52950
#	68002
#	85897
#	103617
#	117790
#	133967
#	148345
#	166742
#	185972
#	201172
#	219540
#	234592
#	252487
#	270205
#	284375
#	300555
#
# Disc length: 4199 seconds
#
# Revision: 1
# Processed by: cddbd v1.5.2PL0 Copyright (c) Steve Scherf et al.
# Submitted via: audiograbber 1.83.01
#
DISCID=1a106513
DTITLE=Various Artist - CHM0302
DYEAR=2003
DGENRE=Country
TTITLE0=Shania Twain - I'm Gonna Getcha Good vocal
TTITLE1=Darryl Worley - Family Tree vocal
TTITLE2=Blake Shelton - The Baby vocal
TTITLE3=Deana Carter - There's No Limit vocal
TTITLE4=Joe Nichols - Brokenheartsville vocal
TTITLE5=Lee Ann Womack - Forever Everyday vocal
TTITLE6=Kevin Denney - It'll Go Away vocal
TTITLE7=Diamond Rio - I Believe vocal
TTITLE8=Dolly Parton - Hello God vocal
TTITLE9=Lee Greenwood - Rocks That You Can't Move vocal
TTITLE10=Shania Twain - I'm Gonna Getcha Good
TTITLE11=Darryl Worley - Family Tree
TTITLE12=Blake Shelton - The Baby
TTITLE13=Deana Carter - There's No Limit
TTITLE14=Joe Nichols - Brokenheartsville
TTITLE15=Lee Ann Womack - Forever Everyday
TTITLE16=Kevin Denney - It'll Go Away
TTITLE17=Diamond Rio - I Believe
TTITLE18=Dolly Parton - Hello God
EXTD=
EXTT0=
EXTT1=
EXTT2=
EXTT3=
EXTT4=
EXTT5=
EXTT6=
EXTT7=
EXTT8=
EXTT9=
EXTT10=
EXTT11=
EXTT12=
EXTT13=
EXTT14=
EXTT15=
EXTT16=
EXTT17=
EXTT18=
PLAYORDER=
